# xmcd
#
# Track frame offsets:
#	150
#	14320
#	30864
#	50036
#	64629
#	82509
#	97032
#	120956
#	137645
#	151441
#	170595
#	186827
#	205662
#	220730
#	236403
#	252423
#	266551
#
# Disc length: 3758 seconds
#
# Revision: 0
# Processed by: cddbd v1.5.2PL0 Copyright (c) Steve Scherf et al.
# Submitted via: EZCDAudioConverter 1.0.8.1
#
DISCID=d90eac11
DTITLE=Official 2013 Academy Of Music Awards 'Zinepak
DYEAR=2013
DGENRE=Country
TTITLE0=Jason Aldean - Take a Little Ride
TTITLE1=Luke Bryan - I Don't Want This Night to End
TTITLE2=Miranda Lambert - Over You
TTITLE3=Blake Shelton - Over
TTITLE4=Taylor Swift - Begin Again
TTITLE5=The Band Perry - Better Dig Two
TTITLE6=Brad Paisley - Southern Comfort Zone
TTITLE7=Eli Young Band - Even if it Breaks Your Heart
TTITLE8=Dierks Bentley - 5-1-5-0
TTITLE9=Brantley Gilbert - More Than Miles
TTITLE10=Jana Kramer - Whiskey
TTITLE11=Florida Georgia Line - Here's to the Good Times
TTITLE12=Hunter Hayes - Somebody's Heartbreak
TTITLE13=Kacey Musgraves - Merry Go 'Round
TTITLE14=Lee Brice - Hard to Love
TTITLE15=Love And Theft - Angel Eyes
TTITLE16=Thompson Square - If I Didn't Have You
EXTD=
EXTT0=
EXTT1=
EXTT2=
EXTT3=
EXTT4=
EXTT5=
EXTT6=
EXTT7=
EXTT8=
EXTT9=
EXTT10=
EXTT11=
EXTT12=
EXTT13=
EXTT14=
EXTT15=
EXTT16=
PLAYORDER=
